<?xml version="1.0" encoding="UTF-8"?>
<svg id="Capa_2" data-name="Capa 2" xmlns="http://www.w3.org/2000/svg" viewBox="0 0 118.7 110.04">
  <defs>
    <style>
      .cls-1 {
        fill: #4743ef;
      }
    </style>
  </defs>
  <polygon class="cls-1" points="110.48 7.01 110.48 87.57 91.42 87.57 91.42 35.99 78.89 55.58 78.89 23.3 89.31 7.01 110.48 7.01"/>
  <path class="cls-1" d="M76.55,7.01v56.88c-1.12,2.03-2.57,3.86-4.28,5.41,0,0,0,.01-.01.01-3.74,3.39-8.69,5.46-14.13,5.46-.21,0-.42,0-.64-.01-3.06-.09-5.95-.83-8.54-2.09-3.78-1.84-6.92-4.78-9.02-8.4-1.79-3.1-2.82-6.69-2.82-10.52v-2.08h20.38v-14.84l-8.01,12.5h-14.72v5.19c0,3.94,1.44,8.22,3.79,11.91l-13.52,21.14H4.48v-28.49h17.59L55.37,7.01h21.18Z"/>
  <path class="cls-1" d="M76.55,68.11v19.45h-19.06v-10.46c4.15.11,8.08-.87,11.5-2.68,2.94-1.55,5.52-3.71,7.55-6.31Z"/>
  <circle class="cls-1" cx="19.91" cy="100.83" r="4.47"/>
  <circle class="cls-1" cx="99.18" cy="100.83" r="4.47"/>
  <circle class="cls-1" cx="59.54" cy="100.83" r="4.47"/>
</svg>